<svg width="31" height="28" viewBox="0 0 31 28" fill="none" xmlns="http://www.w3.org/2000/svg">
<g filter="url(#filter0_d_2_53)">
<path d="M15.9196 0.944265L27.4711 10.9494L27.4742 10.9525L27.4862 10.9631C27.7688 11.2112 27.854 11.6015 27.6917 11.9505L27.6913 11.9513C27.5603 12.2345 27.235 12.4327 26.8583 12.4327H24.7894H24.2894V12.9327V22.8435C24.2894 23.6025 23.6741 24.2185 22.9144 24.2185H18.3608C18.0455 24.2185 17.7894 23.9623 17.7894 23.647V17.0363C17.7894 16.5631 17.406 16.1827 16.9358 16.1827H13.3573C12.8871 16.1827 12.5037 16.5631 12.5037 17.0363V23.647C12.5037 23.9623 12.2475 24.2185 11.9323 24.2185H7.37869C6.61983 24.2185 6.00369 23.6023 6.00369 22.8435V12.9327V12.4327H5.50369H3.43476C3.05812 12.4327 2.73275 12.2345 2.60175 11.9513L2.60136 11.9505C2.43928 11.6019 2.52406 11.2123 2.80572 10.9641C2.8061 10.9637 2.80647 10.9634 2.80685 10.9631L14.4036 0.917457L14.4132 0.909125L14.4224 0.900315C14.5894 0.740083 14.849 0.627085 15.1351 0.620688C15.441 0.627023 15.7025 0.738269 15.902 0.928326L15.9106 0.936504L15.9196 0.944265ZM27.7561 10.6476L27.7561 10.6476L27.8162 10.5874L27.7561 10.6476Z" stroke="white" shape-rendering="crispEdges"/>
</g>
<defs>
<filter id="filter0_d_2_53" x="-1.98035" y="0.120605" width="34.2538" height="32.5978" filterUnits="userSpaceOnUse" color-interpolation-filters="sRGB">
<feFlood flood-opacity="0" result="BackgroundImageFix"/>
<feColorMatrix in="SourceAlpha" type="matrix" values="0 0 0 0 0 0 0 0 0 0 0 0 0 0 0 0 0 0 127 0" result="hardAlpha"/>
<feOffset dy="4"/>
<feGaussianBlur stdDeviation="2"/>
<feComposite in2="hardAlpha" operator="out"/>
<feColorMatrix type="matrix" values="0 0 0 0 0 0 0 0 0 0 0 0 0 0 0 0 0 0 0.25 0"/>
<feBlend mode="normal" in2="BackgroundImageFix" result="effect1_dropShadow_2_53"/>
<feBlend mode="normal" in="SourceGraphic" in2="effect1_dropShadow_2_53" result="shape"/>
</filter>
</defs>
</svg>
