<svg width="43" height="45" viewBox="0 0 43 45" fill="none" xmlns="http://www.w3.org/2000/svg">
<g filter="url(#filter0_d_1_62)">
<path d="M36.3904 17.2975V24.2196C36.3904 31.1417 33.6308 33.9167 26.6933 33.9167H18.3837C17.4896 33.9167 16.6725 33.8704 15.9171 33.7625M8.68665 23.9267V17.2975M22.5462 18.5C25.3675 18.5 27.4487 16.2029 27.1712 13.3817L26.1383 3.08333H18.9387L17.9058 13.3817C17.6283 16.2029 19.725 18.5 22.5462 18.5Z" stroke="#2374E1" stroke-width="1.5" stroke-linecap="round" stroke-linejoin="round"/>
<path d="M32.2588 18.5C35.3729 18.5 37.6546 15.9717 37.3463 12.8729L36.9146 8.63333C36.3596 4.62499 34.8179 3.08333 30.7788 3.08333H26.0767L27.1558 13.8904C27.4333 16.4342 29.715 18.5 32.2588 18.5ZM12.7413 18.5C15.285 18.5 17.5821 16.4342 17.8288 13.8904L18.1679 10.4833L18.9079 3.08333H14.2058C10.1667 3.08333 8.62501 4.62499 8.07001 8.63333L7.63834 12.8729C7.33001 15.9717 9.6271 18.5 12.7413 18.5Z" stroke="#2374E1" stroke-width="1.5" stroke-linecap="round" stroke-linejoin="round"/>
<path d="M14.0054 29.2608H9.41127M11.7084 27.01V31.6196M17.875 29.2917C17.875 30.4479 17.5513 31.5425 16.9809 32.4675C16.6879 32.9608 16.3334 33.4079 15.9171 33.7625C15.8709 33.8242 15.8246 33.8704 15.7629 33.9167C14.6838 34.8879 13.2654 35.4583 11.7084 35.4583C9.82752 35.4583 8.1471 34.6104 7.0371 33.2846C7.00627 33.2383 6.96002 33.2075 6.92919 33.1613C6.74419 32.9454 6.5746 32.7142 6.43585 32.4675C5.86544 31.5425 5.54169 30.4479 5.54169 29.2917C5.54169 27.3492 6.43585 25.6071 7.85419 24.4817C8.11627 24.2658 8.39377 24.0808 8.68669 23.9267C9.58085 23.4179 10.6138 23.125 11.7084 23.125C13.25 23.125 14.6375 23.68 15.7167 24.6204C15.9017 24.7592 16.0713 24.9288 16.2254 25.0983C17.2429 26.2083 17.875 27.6729 17.875 29.2917Z" stroke="#2374E1" stroke-width="1.5" stroke-miterlimit="10" stroke-linecap="round" stroke-linejoin="round"/>
</g>
<defs>
<filter id="filter0_d_1_62" x="0" y="0" width="45" height="45" filterUnits="userSpaceOnUse" color-interpolation-filters="sRGB">
<feFlood flood-opacity="0" result="BackgroundImageFix"/>
<feColorMatrix in="SourceAlpha" type="matrix" values="0 0 0 0 0 0 0 0 0 0 0 0 0 0 0 0 0 0 127 0" result="hardAlpha"/>
<feOffset dy="4"/>
<feGaussianBlur stdDeviation="2"/>
<feComposite in2="hardAlpha" operator="out"/>
<feColorMatrix type="matrix" values="0 0 0 0 0 0 0 0 0 0 0 0 0 0 0 0 0 0 0.25 0"/>
<feBlend mode="normal" in2="BackgroundImageFix" result="effect1_dropShadow_1_62"/>
<feBlend mode="normal" in="SourceGraphic" in2="effect1_dropShadow_1_62" result="shape"/>
</filter>
</defs>
</svg>
